# xmcd
#
# Track frame offsets: 
#        150
#        15539
#        39958
#        64714
#        93430
#        120622
#        150623
#        173144
#        196646
#        245806
#        268909
#        290276
#        325946
#        341288
#
# Disc length: 4703 seconds
#
# Revision: 0
# Processed by: cddbd v1.5.2PL0 Copyright (c) Steve Scherf et al.
# Submitted via: ExactAudioCopy v1.0b3
#
DISCID=ba125d0e
DTITLE=Eric Bell - Belfast Blues In A Jar
DYEAR=2012
DGENRE=Blues
TTITLE0=The Stumble
TTITLE1=Oh Pretty Woman
TTITLE2=Things I Used To Do
TTITLE3=Baby Please Don't Go
TTITLE4=Madame George
TTITLE5=Walk On Water
TTITLE6=Three O'clock Blues
TTITLE7=Hold That Plane
TTITLE8=Whiskey In The jar
TTITLE9=The Rocker
TTITLE10=Shake Your Money Maker
TTITLE11=Hoochie Coochie Man
TTITLE12=Dallas
TTITLE13=Belfast Blues
EXTD=
EXTT0=
EXTT1=
EXTT2=
EXTT3=
EXTT4=
EXTT5=
EXTT6=
EXTT7=
EXTT8=
EXTT9=
EXTT10=
EXTT11=
EXTT12=
EXTT13=
PLAYORDER=
